HIERARCHY
ROOT Hips
{
	OFFSET 0.000000 0.000000 0.000000
	CHANNELS 6 Xposition Yposition Zposition Zrotation Yrotation Xrotation 
	JOINT LHipJoint
	{
		OFFSET 0.000000 0.000000 0.000000
		CHANNELS 3 Zrotation Yrotation Xrotation
		JOINT LeftUpLeg
		{
			OFFSET 1.363060 -1.794630 0.839290
			CHANNELS 3 Zrotation Yrotation Xrotation
			JOINT LeftLeg
			{
				OFFSET 2.448110 -6.726130 0.000000
				CHANNELS 3 Zrotation Yrotation Xrotation
				JOINT LeftFoot
				{
					OFFSET 2.562200 -7.039590 0.000000
					CHANNELS 3 Zrotation Yrotation Xrotation
					JOINT LeftToeBase
					{
						OFFSET 0.157640 -0.433110 2.322550
						CHANNELS 3 Zrotation Yrotation Xrotation
						End Site
						{
							OFFSET 0.000000 0.000000 0.000000
						}
					}
				}
			}
		}
	}
	JOINT RHipJoint
	{
		OFFSET 0.000000 0.000000 0.000000
		CHANNELS 3 Zrotation Yrotation Xrotation
		JOINT RightUpLeg
		{
			OFFSET -1.305520 -1.794630 0.839290
			CHANNELS 3 Zrotation Yrotation Xrotation
			JOINT RightLeg
			{
				OFFSET -2.542530 -6.985550 0.000000
				CHANNELS 3 Zrotation Yrotation Xrotation
				JOINT RightFoot
				{
					OFFSET -2.568260 -7.056230 0.000000
					CHANNELS 3 Zrotation Yrotation Xrotation
					JOINT RightToeBase
					{
						OFFSET -0.164730 -0.452590 2.363150
						CHANNELS 3 Zrotation Yrotation Xrotation
						End Site
						{
							OFFSET 0.000000 0.000000 0.000000
						}
					}
				}
			}
		}
	}
}
MOTION
Frames: 25
Frame Time: 0.008333
4.300885 17.385641 1.098377 -176.025600 -57.360529 -162.587044 -11.298738 2.115070 -4.684706 -14.217621 34.097018 -21.623445 -3.782250 -1.053923 -5.457637 1.669014 13.792224 2.613380 2.781300 0.000001 -40.231800 9.185756 0.119782 4.784634 -1.785757 13.518230 -25.228015 2.867132 1.454373 -4.308923 1.348546 5.851496 15.120971 1.378601 -0.000000 -66.685801
4.299168 17.390397 1.102281 -176.175867 -57.118937 -162.503917 -11.298078 2.125344 -4.716075 -14.298521 34.184930 -21.393069 -3.770967 -1.087054 -5.703874 1.761758 14.005518 2.824903 2.798800 -0.000000 -40.086000 9.202726 0.089871 4.820634 -1.888894 13.553996 -25.290504 2.849628 1.423424 -4.277611 1.366985 6.104287 15.241151 1.496100 -0.000000 -66.767300
4.299651 17.395447 1.106572 -176.355617 -56.936633 -162.429555 -11.307410 2.134434 -4.726977 -14.344534 34.185768 -21.100057 -3.746406 -1.123038 -5.984516 1.873680 14.268813 3.058794 2.822500 0.000000 -39.910000 9.215975 0.059407 4.839558 -1.969834 13.525232 -25.288232 2.835515 1.396029 -4.283074 1.384961 6.353786 15.371013 1.613500 0.000000 -66.843300
4.302091 17.400293 1.111924 -176.554112 -56.803641 -162.365384 -11.301413 2.130837 -4.725836 -14.354613 34.089438 -21.002365 -3.727370 -1.116640 -5.744290 1.930872 14.565372 2.974498 2.849400 -0.000000 -39.706300 9.224235 0.036080 4.836102 -2.031111 13.440449 -25.223743 2.825576 1.373441 -4.315467 1.401969 6.588801 15.501156 1.724800 0.000000 -66.914200
4.306386 17.404428 1.118806 -176.758725 -56.722609 -162.312710 -11.296281 2.122019 -4.716243 -14.332742 33.909705 -20.921669 -3.701263 -1.098598 -5.392405 1.980721 14.886963 2.802777 2.875200 0.000000 -39.481400 9.229721 0.023935 4.806979 -2.076591 13.309812 -25.106333 2.818343 1.355030 -4.365374 1.416506 6.797445 15.620595 1.824400 -0.000000 -66.984301
4.312335 17.407472 1.127447 -176.963286 -56.691449 -162.269077 -11.295971 2.111112 -4.701483 -14.287266 33.663363 -20.815239 -3.667269 -1.077981 -5.050000 2.034473 15.215087 2.609195 2.895300 0.000000 -39.242900 9.233003 0.024446 4.753589 -2.112033 13.145806 -24.948926 2.812720 1.340421 -4.421764 1.427758 6.970562 15.719568 1.907200 -0.000000 -67.056600
4.319436 17.409203 1.137733 -177.162784 -56.706969 -162.230011 -11.299557 2.099364 -4.684520 -14.229216 33.370295 -20.694096 -3.629129 -1.055718 -4.726816 2.088658 15.527678 2.398238 2.905900 -0.000001 -39.000500 9.234199 0.036899 4.680626 -2.144299 12.962024 -24.765542 2.807629 1.329401 -4.477029 1.435069 7.099628 15.791506 1.969100 -0.000000 -67.133300
4.327354 17.409562 1.149422 -177.355162 -56.767102 -162.191460 -11.305782 2.087443 -4.668189 -14.168235 33.051814 -20.569205 -3.590640 -1.032828 -4.429949 2.139508 15.803082 2.176515 2.904100 -0.000001 -38.762800 9.233658 0.059278 4.593762 -2.178984 12.771135 -24.569567 2.801812 1.321330 -4.525325 1.437855 7.178212 15.833566 2.006900 0.000000 -67.213500
4.335667 17.408604 1.161988 -177.543938 -56.869514 -162.140858 -11.312146 2.075824 -4.654225 -14.120655 32.727813 -20.455967 -3.555876 -1.011223 -4.165240 2.183595 16.024663 1.952860 2.889200 -0.000001 -38.537300 9.232786 0.088251 4.500075 -2.222669 12.578824 -24.384143 2.793686 1.314656 -4.554899 1.436391 7.211623 15.839755 2.022700 -0.000000 -67.298000
4.344206 17.406524 1.175291 -177.724371 -57.012690 -162.082314 -11.318690 2.064159 -4.645877 -14.086076 32.417643 -20.357277 -3.527070 -0.991298 -3.934036 2.218103 16.178658 1.733598 2.860500 0.000000 -38.331500 9.231184 0.120791 4.404271 -2.276870 12.398786 -24.208849 2.782467 1.309192 -4.571559 1.429696 7.190632 15.816368 2.013501 -0.000000 -67.385100
4.352610 17.403482 1.188646 -177.905705 -57.192586 -161.999546 -11.323297 2.053048 -4.642342 -14.080052 32.131819 -20.286400 -3.506814 -0.974969 -3.737757 2.241412 16.260692 1.526823 2.820300 -0.000000 -38.147399 9.230453 0.153465 4.312195 -2.345842 12.226473 -24.067798 2.767206 1.303070 -4.560856 1.419134 7.132904 15.758249 1.986599 0.000000 -67.473300
4.360820 17.399786 1.201939 -178.085603 -57.405903 -161.896103 -11.326190 2.042115 -4.644896 -14.099527 31.878621 -20.243687 -3.495510 -0.962103 -3.573532 2.252883 16.269657 1.336925 2.770300 -0.000000 -37.987500 9.230220 0.184329 4.226719 -2.428796 12.070179 -23.957042 2.747823 1.296501 -4.532582 1.404194 7.033752 15.675689 1.941400 -0.000000 -67.560600
4.368592 17.395739 1.214748 -178.269001 -57.647861 -161.763645 -11.326508 2.031904 -4.650918 -14.150312 31.656193 -20.235298 -3.493212 -0.953298 -3.438537 2.253306 16.213141 1.168193 2.713900 0.000000 -37.849501 9.231217 0.211842 4.150689 -2.526062 11.924872 -23.886669 2.724479 1.288927 -4.483696 1.385939 6.905182 15.571749 1.883300 0.000000 -67.644801
4.375710 17.391630 1.226873 -178.456269 -57.914563 -161.600340 -11.324154 2.022552 -4.657641 -14.231574 31.457630 -20.262858 -3.498745 -0.948405 -3.328493 2.244437 16.102873 1.022554 2.654799 -0.000000 -37.729200 9.233365 0.235218 4.085854 -2.636696 11.790785 -23.855729 2.697659 1.280873 -4.422616 1.364559 6.748495 15.456013 1.814000 -0.000000 -67.723400
4.382021 17.387756 1.237954 -178.656179 -58.203704 -161.397343 -11.318348 2.014704 -4.660260 -14.347204 31.270364 -20.329702 -3.510858 -0.947681 -3.238829 2.228538 15.953642 0.900967 2.596500 0.000000 -37.620000 9.237407 0.254025 4.033076 -2.759829 11.657453 -23.870884 2.667880 1.272086 -4.346704 1.341299 6.576516 15.330580 1.738900 0.000000 -67.792000
4.387357 17.384290 1.248202 -178.863623 -58.511563 -161.160383 -11.310011 2.008184 -4.655505 -14.489073 31.079580 -20.430734 -3.526798 -0.950414 -3.165744 2.208667 15.782934 0.800792 2.541600 0.000000 -37.514701 9.242332 0.268729 3.991883 -2.892644 11.528379 -23.920734 2.636189 1.264046 -4.271838 1.315857 6.383341 15.208343 1.656600 0.000000 -67.851500
4.391521 17.381351 1.257462 -179.082645 -58.838178 -160.885312 -11.299067 2.003467 -4.639125 -14.656669 30.871109 -20.565413 -3.544957 -0.956512 -3.104391 2.187130 15.604374 0.719630 2.492200 -0.000000 -37.406800 9.248427 0.279524 3.961482 -3.033564 11.394212 -24.005316 2.603287 1.256997 -4.198096 1.289047 6.176579 15.090299 1.570100 0.000001 -67.897000
4.394540 17.379004 1.266085 -179.310484 -59.180054 -160.578227 -11.286447 2.000389 -4.608781 -14.841146 30.630226 -20.724740 -3.562546 -0.965447 -3.054573 2.166909 15.434709 0.652726 2.449900 0.000000 -37.288700 9.254902 0.287877 3.939557 -3.179468 11.255864 -24.113608 2.570167 1.252017 -4.135219 1.260867 5.953740 14.983662 1.478600 0.000001 -67.931200
4.396537 17.377168 1.274249 -179.547405 -59.535498 -160.243145 -11.272624 1.998879 -4.563317 -15.036246 30.347276 -20.901255 -3.577738 -0.976748 -3.015290 2.149959 15.284864 0.595996 2.415401 0.000000 -37.155500 9.261570 0.295230 3.923539 -3.328340 11.110839 -24.238187 2.537461 1.249588 -4.086714 1.231517 5.715946 14.890089 1.382599 -0.000000 -67.953700
4.397376 17.375764 1.282250 -179.788018 -59.901558 -159.885038 -11.258445 1.998881 -4.502770 -15.235205 30.016455 -21.086889 -3.589181 -0.990111 -2.987792 2.137616 15.161870 0.545324 2.388599 -0.000000 -37.004100 9.268032 0.302917 3.910799 -3.477987 10.959220 -24.371027 2.505826 1.250225 -4.055642 1.201112 5.463574 14.810530 1.281800 -0.000000 -67.965700
4.397406 17.374630 1.290376 179.967949 -60.274350 -159.510226 -11.244206 1.999901 -4.429100 -15.431444 29.636325 -21.271655 -3.595690 -1.005228 -2.975449 2.130867 15.071516 0.498244 2.369500 0.000000 -36.832500 9.274358 0.312905 3.897967 -3.626801 10.800632 -24.505580 2.475617 1.253895 -4.042180 1.169926 5.199672 14.743752 1.177001 0.000000 -67.970000
4.396607 17.373629 1.298752 179.725253 -60.652224 -159.122978 -11.230140 2.001343 -4.345676 -15.620926 29.212768 -21.451078 -3.597584 -1.021768 -2.978924 2.129078 15.009390 0.452466 2.356600 -0.000000 -36.643300 9.280533 0.326059 3.882952 -3.773989 10.638008 -24.636067 2.446779 1.260608 -4.047454 1.137656 4.922674 14.688166 1.067700 -0.000000 -67.966500
4.395338 17.372615 1.307548 179.485721 -61.032275 -158.728802 -11.215918 2.002168 -4.257137 -15.800395 28.754108 -21.619233 -3.595109 -1.039587 -3.001374 2.131602 14.972187 0.407979 2.349000 0.000000 -36.439300 9.286974 0.343524 3.863385 -3.919215 10.474041 -24.758798 2.419035 1.269864 -4.070547 1.104227 4.634365 14.641192 0.954100 0.000000 -67.957200
4.393831 17.371443 1.316879 179.251607 -61.410821 -158.330934 -11.201112 2.001549 -4.168047 -15.968530 28.270459 -21.770127 -3.588805 -1.059008 -3.047702 2.137541 14.956099 0.366287 2.346100 -0.000000 -36.223700 9.294488 0.365903 3.837063 -4.061399 10.307793 -24.873730 2.392209 1.280613 -4.105959 1.070224 4.343299 14.599302 0.839599 0.000000 -67.946900
4.392249 17.370016 1.326649 179.024925 -61.786687 -157.931662 -11.184854 1.998327 -4.083544 -16.126395 27.775981 -21.903761 -3.580173 -1.080096 -3.118345 2.145001 14.951087 0.329171 2.346300 0.000000 -36.003000 9.303844 0.392937 3.803331 -4.200889 10.141572 -24.981173 2.365634 1.291964 -4.151291 1.035533 4.051990 14.559415 0.725200 -0.000000 -67.936200
